<svg width="160" height="17" viewBox="0 0 160 17" fill="none" xmlns="http://www.w3.org/2000/svg">
<path d="M0.166204 2.88105L12.2743 2.91694C12.4286 2.92866 12.5769 2.98221 12.7031 3.07183C12.8536 3.19164 12.9654 3.35332 13.0242 3.53652C13.17 3.92786 13.2513 4.33069 13.2226 4.74731H16.4338C16.4953 3.69218 16.207 2.72214 15.5837 1.86858C14.5523 0.482102 12.9694 0.19687 12.3574 0.0835339C12.1043 0.0363105 11.9494 0.0249759 10.6914 0.0117534C8.09596 -0.0146917 5.9898 0.0117534 5.40234 0.0117534L3.11672 0.0363105C2.30737 0.236285 1.57764 0.676889 1.02378 1.30001C0.6235 1.75641 0.164275 2.29664 0 2.88105H0.166204Z" fill="#1B1B1B"/>
<path d="M0 3.99219H3.0223V12.2648C3.03235 12.6913 3.15808 13.0946 3.42245 13.4295C3.68683 13.7644 4.02643 13.8268 4.439 13.9356H12.4292C12.9629 13.7979 13.4248 13.4638 13.7225 13C14.0203 12.5362 14.167 11.9257 14.167 11.359H9.82247V8.7202H16.6226L16.6434 13.1498C16.5201 14.143 16.0522 15.0615 15.3212 15.7451C14.8239 16.198 14.2517 16.4882 13.6003 16.6556H4.14244C3.14287 16.6023 2.19042 16.2138 1.43882 15.5527C0.687226 14.8916 0.180347 13.9965 0 13.0119V3.99219Z" fill="#1B1B1B"/>
<path d="M19.6447 3.80264H22.8559V7.01383H31.3561C31.7023 7.01377 32.0666 6.78268 32.3768 6.62902C32.6871 6.47537 32.9577 6.25217 33.1676 5.97681C33.1716 5.97021 33.176 5.96389 33.1808 5.95791L33.245 5.86347C33.4696 5.52567 33.5698 5.12035 33.5284 4.71685C33.4871 4.31334 33.3068 3.93676 33.0184 3.65153L33.0014 3.63641C32.649 3.318 32.2088 2.86092 31.7339 2.85817H19.6447V0.0247669L31.4506 0.0247593C32.6102 -0.0028071 33.6872 0.402149 34.6041 1.11261C35.521 1.82308 36.1651 2.82777 36.4279 3.95754C36.6438 4.83272 36.5991 5.7519 36.2995 6.60205C36.1586 6.99739 35.9635 7.37121 35.7196 7.71274C34.318 9.67535 31.8831 9.74334 31.5771 9.74712L35.8896 16.6399L32.1495 16.6399L28.3943 9.92091L22.8483 9.89824V16.6474H19.6447V3.80264Z" fill="#1B1B1B"/>
<path d="M78.7682 0.0254426V2.85885H90.8284C91.4145 2.84076 91.9304 2.937 92.3629 3.33297C92.5643 3.51537 92.7253 3.73792 92.8355 3.98632C92.9457 4.23472 93.0026 4.50344 93.0026 4.77518C93.0026 5.04691 92.9457 5.31563 92.8355 5.56403C92.7253 5.81242 92.5643 6.03498 92.3629 6.21737C91.7566 6.78405 90.9349 6.80484 90.1717 6.81239C85.4683 6.85017 85.4135 6.84828 85.3871 6.84828C84.52 6.81239 83.1506 6.79539 81.6016 6.82561V4.1811H78.7682V16.6481H81.6016V9.84791L90.6648 9.87247C91.4711 9.88775 92.2673 9.69181 92.9745 9.30411C93.6816 8.9164 94.275 8.35043 94.6957 7.66241L94.7203 7.62086C95.1598 6.85773 95.4123 6.00131 95.457 5.12179C95.4596 4.14599 95.1879 3.18909 94.6731 2.36017C94.6032 2.25061 94.5314 2.14483 94.4577 2.04661C94.003 1.45535 93.5056 0.91979 92.8355 0.592118C92.1654 0.264446 91.4144 0.0213065 90.6685 0.0254426H78.7682Z" fill="#1B1B1B"/>
<path d="M105.017 0.0253906H107.48V8.24227C107.458 8.64284 107.575 9.09229 107.735 9.3114C107.842 9.42744 107.999 9.59162 108.141 9.65897C108.322 9.74398 108.509 9.85466 108.708 9.84786H116.925V12.3035H108.613C107.982 12.3032 107.278 12.1997 106.734 11.8785L106.721 11.869C106.45 11.7074 106.196 11.5174 105.965 11.3023C105.806 11.1502 105.662 10.9825 105.536 10.8018C105.204 10.3206 105.023 9.73766 105.017 9.15274L105.017 0.0253906Z" fill="#1B1B1B"/>
<path d="M143.937 0.0253906H146.4V8.24227C146.377 8.64284 146.494 9.09229 146.655 9.3114C146.762 9.42744 146.918 9.59162 147.061 9.65897C147.241 9.74398 147.428 9.85466 147.628 9.84786H155.844V12.3035H147.533C146.902 12.3032 146.197 12.1997 145.654 11.8785L145.64 11.869C145.369 11.7074 145.116 11.5174 144.885 11.3023C144.726 11.1502 144.582 10.9825 144.456 10.8018C144.123 10.3206 143.942 9.73766 143.937 9.15274L143.937 0.0253906Z" fill="#1B1B1B"/>
<path d="M121.08 0.0253906H118.436V16.648H121.08V0.0253906Z" fill="#1B1B1B"/>
<path d="M160 0.0253906H157.356V16.648H160V0.0253906Z" fill="#1B1B1B"/>
<path d="M124.292 12.1146H127.125C127.091 9.43482 127.125 6.82556 127.125 4.18105C127.139 3.88882 127.124 3.61939 127.29 3.37827C127.392 3.2311 127.52 3.10322 127.667 3.00048C127.818 2.89364 127.984 2.80594 128.164 2.76435C128.248 2.74488 128.438 2.6695 128.542 2.6699H136.192C136.434 2.67558 136.705 2.67399 136.938 2.7398C137.149 2.78792 137.346 2.87998 137.518 3.00992C137.64 3.10942 137.742 3.23043 137.82 3.36693C137.902 3.50741 137.957 3.66172 137.983 3.82216C138.048 6.42008 138.092 9.035 138.115 11.6669C138.115 11.9446 138.115 12.2223 138.115 12.4999C138.077 12.6997 137.989 12.8864 137.858 13.0421C137.717 13.1896 137.544 13.3033 137.352 13.3746C137.16 13.4459 136.955 13.473 136.751 13.4539L124.292 13.4368C124.464 14.2234 125.465 15.381 126.086 15.8925C126.708 16.404 127.454 16.6307 128.259 16.648H136.751C137.19 16.6535 138.115 16.1758 138.27 16.0814C138.553 15.9086 139.095 15.6674 139.502 15.3466L139.521 15.3296C140.212 14.7535 140.674 13.9497 140.826 13.0628C140.846 12.9494 140.856 12.8343 140.856 12.7191L140.822 4.17351C140.831 3.39136 140.629 2.62128 140.236 1.94456C140.137 1.77686 140.024 1.6171 139.9 1.46666C139.83 1.37788 139.772 1.31366 139.711 1.25132C139.522 1.03976 139.352 0.87354 139.301 0.833873C138.924 0.495753 138.244 0.225632 137.601 0.110407C137.365 0.0677321 137.132 0.0292327 136.892 0.0253906H128.259C127.814 0.0289803 127.362 0.131395 126.936 0.214284C126.373 0.323966 125.862 0.647555 125.437 1.03221C125.359 1.10399 125.289 1.17765 125.223 1.25132C124.65 1.92293 124.269 2.73185 124.292 3.61437V12.1146Z" fill="#1B1B1B"/>
<path d="M59.6902 0.0253906H62.3347C62.3592 3.92907 62.3125 7.83185 62.337 11.7368C62.3245 12.0153 62.3347 12.3035 62.337 12.5696C62.424 13.0092 62.5014 13.4105 62.8378 13.6647C63.0217 13.7982 63.24 13.995 63.4681 14.0035H63.9403H67.2459V16.6459H63.5725C63.0248 16.6635 62.4793 16.5699 61.9697 16.3708H61.9561L61.9136 16.3516C61.2917 16.0912 60.7592 15.6585 60.3804 15.1056V15.0942L60.3688 15.077C60.0035 14.5052 59.811 13.8422 59.8139 13.1659L59.6902 0.0253906Z" fill="#1B1B1B"/>
<path d="M75.747 0.0253906H73.1025C73.078 3.92907 73.1246 7.83185 73.1001 11.7368C73.1127 12.0153 73.1025 12.3035 73.1001 12.5696C73.0131 13.0092 72.9358 13.4105 72.5994 13.6647C72.4154 13.7982 72.1971 13.995 71.9691 14.0035H71.4969H68.1912V16.6459H71.8647C72.4124 16.6635 72.9579 16.5699 73.4675 16.3708H73.481L73.5236 16.3516C74.1455 16.0912 74.678 15.6585 75.0567 15.1056V15.0942L75.0683 15.077C75.4336 14.5052 75.6262 13.8422 75.6232 13.1659L75.747 0.0253906Z" fill="#1B1B1B"/>
<path d="M39.6683 7.76979H42.5073V4.18081C42.5241 3.95712 42.564 3.76109 42.6783 3.5681C42.7927 3.37512 42.9501 3.21115 43.1382 3.089C43.2823 3.03074 43.4325 2.98893 43.5859 2.96433C43.7268 2.94653 43.8689 2.93896 44.0109 2.94167C44.1375 2.94167 44.2319 2.94167 44.2451 2.94167C44.6116 2.95867 46.6611 2.90389 47.4903 2.89255C49.06 2.87366 51.8217 2.953 51.8236 2.953C51.8236 2.953 52.4526 2.93977 52.8171 3.208C52.9173 3.28167 53.006 3.36857 53.006 3.36857C53.1467 3.49494 53.262 3.64685 53.346 3.81625C53.4264 3.98603 53.4708 4.17061 53.4764 4.35837C53.4865 6.97518 53.4474 9.68643 53.4575 12.3032C53.4477 12.4891 53.4645 12.5786 53.4103 12.7566C53.3707 12.8871 53.3188 13.0136 53.2554 13.1344C53.1628 13.2484 53.0547 13.3489 52.9343 13.4328C52.7215 13.5797 52.4861 13.5924 52.2297 13.6255H44.1639H43.5406C43.3517 13.6255 43.1519 13.5853 43.006 13.4026C42.799 13.1331 42.4784 12.8312 42.5017 12.4921V8.90315H39.6683V11.9255C39.8571 14.0033 39.9419 13.728 40.386 14.5303L40.3993 14.5511C40.6582 14.9911 41.0009 15.3762 41.408 15.6844C41.5081 15.7619 41.6176 15.8374 41.7347 15.913L41.7536 15.9243C42.4779 16.3703 43.3134 16.6556 44.1639 16.6478H52.4186C53.0238 16.6589 53.5951 16.5277 54.1583 16.3059C54.3378 16.2304 54.5125 16.1439 54.6815 16.0471C55.1841 15.7466 55.6061 15.3285 55.9112 14.8287C55.9301 14.8004 55.9471 14.7702 55.966 14.74C56.2195 14.3156 56.4804 13.742 56.4817 13.2477V4.49626C56.5001 3.86467 56.4015 3.23513 56.1908 2.63944V2.62244C56.1776 2.58466 56.1624 2.54688 56.1473 2.5091C55.8505 1.74554 55.3135 1.09916 54.6173 0.667391H54.6022C54.0254 0.333657 53.3785 0.139585 52.7132 0.10071C50.7186 -0.0158558 49.5757 0.0704838 47.6963 0.0251493C47.3449 0.0251493 44.8307 -0.0145154 43.3196 0.10071C42.9034 0.130167 42.4944 0.223827 42.1069 0.378378C41.727 0.527735 41.3741 0.738303 41.0623 1.00172C40.6751 1.34637 40.3665 1.77027 40.1575 2.24465C39.9495 2.71724 39.684 3.38113 39.6852 3.89747C39.6474 5.27136 39.6683 6.35309 39.6683 7.76979Z" fill="#1B1B1B"/>
</svg>
