<svg width="23" height="22" viewBox="0 0 23 22" fill="none" xmlns="http://www.w3.org/2000/svg">
<path fill-rule="evenodd" clip-rule="evenodd" d="M7.15836 0.066C8.33136 0.012 8.70536 0 11.6934 0C14.6814 0 15.0554 0.013 16.2274 0.066C17.3994 0.119 18.1994 0.306 18.8994 0.577C19.6324 0.854 20.2974 1.287 20.8474 1.847C21.4074 2.396 21.8394 3.06 22.1154 3.794C22.3874 4.494 22.5734 5.294 22.6274 6.464C22.6814 7.639 22.6934 8.013 22.6934 11C22.6934 13.988 22.6804 14.362 22.6274 15.535C22.5744 16.705 22.3874 17.505 22.1154 18.205C21.8394 18.9391 21.4066 19.6042 20.8474 20.154C20.2974 20.714 19.6324 21.146 18.8994 21.422C18.1994 21.694 17.3994 21.88 16.2294 21.934C15.0554 21.988 14.6814 22 11.6934 22C8.70536 22 8.33136 21.987 7.15836 21.934C5.98836 21.881 5.18836 21.694 4.48836 21.422C3.75428 21.146 3.08918 20.7133 2.53936 20.154C1.97974 19.6047 1.54667 18.9399 1.27036 18.206C0.999359 17.506 0.813359 16.706 0.759359 15.536C0.705359 14.361 0.693359 13.987 0.693359 11C0.693359 8.012 0.706359 7.638 0.759359 6.466C0.812359 5.294 0.999359 4.494 1.27036 3.794C1.54708 3.06008 1.98048 2.39531 2.54036 1.846C3.0894 1.2865 3.75383 0.853443 4.48736 0.577C5.18736 0.306 5.98736 0.12 7.15736 0.066H7.15836ZM16.1384 2.046C14.9784 1.993 14.6304 1.982 11.6934 1.982C8.75636 1.982 8.40836 1.993 7.24836 2.046C6.17536 2.095 5.59336 2.274 5.20536 2.425C4.69236 2.625 4.32536 2.862 3.94036 3.247C3.5754 3.60205 3.29454 4.03428 3.11836 4.512C2.96736 4.9 2.78836 5.482 2.73936 6.555C2.68636 7.715 2.67536 8.063 2.67536 11C2.67536 13.937 2.68636 14.285 2.73936 15.445C2.78836 16.518 2.96736 17.1 3.11836 17.488C3.29436 17.965 3.57536 18.398 3.94036 18.753C4.29536 19.118 4.72836 19.399 5.20536 19.575C5.59336 19.726 6.17536 19.905 7.24836 19.954C8.40836 20.007 8.75536 20.018 11.6934 20.018C14.6314 20.018 14.9784 20.007 16.1384 19.954C17.2114 19.905 17.7934 19.726 18.1814 19.575C18.6944 19.375 19.0614 19.138 19.4464 18.753C19.8114 18.398 20.0924 17.965 20.2684 17.488C20.4194 17.1 20.5984 16.518 20.6474 15.445C20.7004 14.285 20.7114 13.937 20.7114 11C20.7114 8.063 20.7004 7.715 20.6474 6.555C20.5984 5.482 20.4194 4.9 20.2684 4.512C20.0684 3.999 19.8314 3.632 19.4464 3.247C19.0913 2.88207 18.6591 2.60121 18.1814 2.425C17.7934 2.274 17.2114 2.095 16.1384 2.046ZM10.2884 14.391C11.073 14.7176 11.9467 14.7617 12.7603 14.5157C13.5738 14.2697 14.2768 13.7489 14.749 13.0422C15.2212 12.3356 15.4334 11.4869 15.3494 10.6411C15.2654 9.79534 14.8904 9.00497 14.2884 8.405C13.9046 8.02148 13.4406 7.72781 12.9297 7.54515C12.4188 7.36248 11.8738 7.29536 11.3339 7.34862C10.7939 7.40187 10.2725 7.57418 9.80716 7.85313C9.34181 8.13208 8.9441 8.51074 8.64266 8.96185C8.34122 9.41296 8.14355 9.92529 8.06388 10.462C7.9842 10.9986 8.02451 11.5463 8.1819 12.0655C8.33929 12.5847 8.60984 13.0626 8.97408 13.4647C9.33832 13.8668 9.78718 14.1832 10.2884 14.391ZM7.69536 7.002C8.22038 6.47697 8.84368 6.0605 9.52966 5.77636C10.2156 5.49222 10.9509 5.34597 11.6934 5.34597C12.4359 5.34597 13.1711 5.49222 13.8571 5.77636C14.543 6.0605 15.1663 6.47697 15.6914 7.002C16.2164 7.52702 16.6329 8.15032 16.917 8.8363C17.2011 9.52228 17.3474 10.2575 17.3474 11C17.3474 11.7425 17.2011 12.4777 16.917 13.1637C16.6329 13.8497 16.2164 14.473 15.6914 14.998C14.631 16.0583 13.1929 16.654 11.6934 16.654C10.1938 16.654 8.75569 16.0583 7.69536 14.998C6.63502 13.9377 6.03933 12.4995 6.03933 11C6.03933 9.50046 6.63502 8.06234 7.69536 7.002ZM18.6014 6.188C18.7315 6.06527 18.8356 5.91768 18.9077 5.75397C18.9797 5.59027 19.0182 5.41377 19.0208 5.23493C19.0234 5.05609 18.9901 4.87855 18.9228 4.71281C18.8556 4.54707 18.7558 4.39651 18.6293 4.27004C18.5028 4.14357 18.3523 4.04376 18.1866 3.97652C18.0208 3.90928 17.8433 3.87598 17.6644 3.87858C17.4856 3.88119 17.3091 3.91965 17.1454 3.9917C16.9817 4.06374 16.8341 4.1679 16.7114 4.298C16.4727 4.55103 16.342 4.88712 16.3471 5.23493C16.3521 5.58274 16.4926 5.91488 16.7385 6.16084C16.9845 6.40681 17.3166 6.54723 17.6644 6.5523C18.0122 6.55737 18.3483 6.42669 18.6014 6.188Z" fill="#969696"/>
</svg>
